<?xml version="1.0" encoding="UTF-8"?>
<!-- Generator: Adobe Illustrator 22.0.0, SVG Export Plug-In . SVG Version: 6.00 Build 0)  -->
<svg xmlns="http://www.w3.org/2000/svg" xmlns:xlink="http://www.w3.org/1999/xlink" version="1.1" x="0px" y="0px" viewBox="0 0 2556 1411.5" style="enable-background:new 0 0 2556 1411.5;" xml:space="preserve">
<style type="text/css">
	.st0{fill:#FFFFFF;}
</style>
<g id="Calque_1">
	<g>
		<path class="st0" d="M1172.3,1220.8v-133.4h84.2v13.6h-69.8v46h61.4v14h-61.4v46.2h69.8v13.6H1172.3z"></path>
		<path class="st0" d="M1302.8,1175.9v-12h52.2v12H1302.8z"></path>
		<path class="st0" d="M1415.3,1220.8h-14.4v-133.4h47.4c14.9,0,26.4,3.5,34.3,10.6c7.9,7.1,11.9,17.3,11.9,30.6    c0,13.3-4,23.5-11.9,30.6c-7.9,7.1-19.4,10.6-34.3,10.6h-33V1220.8z M1446.5,1156c13.3,0,22.3-2.5,26.8-7.6    c4.5-5.1,6.8-11.7,6.8-19.8c0-8.1-2.3-14.7-6.8-19.8c-4.5-5.1-13.5-7.6-26.8-7.6h-31.2v54.8H1446.5z"></path>
		<path class="st0" d="M1611.6,1220.8l-12.8-33.3h-46.1l-12.8,33.3h-12.5l42.6-106.7h11.5l42.4,106.7H1611.6z M1557.1,1176.5h37.4    l-18.7-48.8L1557.1,1176.5z"></path>
		<path class="st0" d="M1722.4,1114.1l-39.7,57.8v49h-11.5v-49l-39.8-57.8h13.9l31.5,46.7l31.7-46.7H1722.4z"></path>
		<path class="st0" d="M1836.9,1220.2c-5.5-1.7-12.1-4.7-19.8-8.8v-15.6c4.8,4,10.8,7.3,18.1,9.9c7.3,2.6,15.4,3.9,24.3,3.9    c9.7,0,17-2.1,21.8-6.2c4.8-4.1,7.2-9.7,7.2-16.8c0-5.2-1.4-9.5-4.2-12.9c-2.8-3.4-6.1-6.1-10-8c-3.9-1.9-9.7-4.4-17.4-7.3    c-8.3-2.8-14.8-5.5-19.7-8c-4.9-2.5-9-6.3-12.5-11.2c-3.5-4.9-5.2-11.5-5.2-19.6c0-5.5,1.4-10.8,4.1-16c2.7-5.2,7.1-9.5,13.2-13    c6.1-3.5,13.9-5.2,23.5-5.2c7.1,0,12.8,0.7,17.3,2c4.5,1.3,10.4,3.8,17.7,7.4v14.8c-0.9-0.5-3.4-2-7.5-4.3    c-4.1-2.3-8.3-4-12.6-5.1c-4.3-1.1-9-1.6-14.1-1.6c-9.2,0-16,1.9-20.4,5.7c-4.4,3.8-6.6,8.6-6.6,14.3c0,5.2,1.2,9.4,3.5,12.6    c2.3,3.2,5.5,5.8,9.4,7.8c3.9,2,9.5,4.2,16.7,6.6c8.3,2.8,15,5.6,20.3,8.3c5.3,2.7,9.8,6.6,13.5,11.7c3.7,5.1,5.6,11.5,5.6,19.4    c0,10.5-3.5,19.5-10.5,26.8c-7,7.3-18.2,11-33.7,11C1849.7,1222.8,1842.4,1222,1836.9,1220.2z"></path>
		<path class="st0" d="M1958,1220.8h-11.5v-106.7h37.9c11.9,0,21.1,2.8,27.4,8.5c6.3,5.7,9.5,13.8,9.5,24.5    c0,10.7-3.2,18.8-9.5,24.5c-6.3,5.7-15.5,8.5-27.4,8.5H1958V1220.8z M1983,1169c10.7,0,17.8-2,21.4-6.1c3.6-4.1,5.4-9.3,5.4-15.8    c0-6.5-1.8-11.8-5.4-15.8c-3.6-4.1-10.8-6.1-21.4-6.1h-25v43.8H1983z"></path>
		<path class="st0" d="M2120.6,1220.8l-12.8-33.3h-46.1l-12.8,33.3h-12.5l42.6-106.7h11.5l42.4,106.7H2120.6z M2066,1176.5h37.4    l-18.7-48.8L2066,1176.5z"></path>
		<path class="st0" d="M2169.2,1208.3c-8.3-9.2-12.4-22.8-12.4-41c0-18.1,4.1-31.8,12.4-41c8.3-9.2,20.6-13.8,37-13.8    c10.9,0,21.7,2.6,32.5,7.8v11c-10-5.3-20.4-8-31.2-8c-13.4,0-23.3,3.5-29.4,10.6c-6.2,7-9.3,18.1-9.3,33.3    c0,15.3,3.1,26.4,9.2,33.4c6.1,7,16,10.5,29.5,10.5c11.3,0,21.7-2.6,31.2-7.8v11c-10.9,5.1-21.7,7.7-32.5,7.7    C2189.8,1222.1,2177.4,1217.5,2169.2,1208.3z"></path>
		<path class="st0" d="M2275.3,1220.8v-106.7h67.4v10.9h-55.8v36.8h49.1v11.2h-49.1v37h55.8v10.9H2275.3z"></path>
	</g>
	<path class="st0" d="M606.8,924.4l-127.1-0.1l0,74.8l183.7,168.2c3.4,3.1,7,6,10.6,8.7c66.2-6.8,127.1-32.5,177.8-71.5l33.5-29   c27.3-26.9,50.4-58.2,68.4-92.8l-284.8-0.1L606.8,924.4z"></path>
	<path class="st0" d="M426.2,870.7l130,0.1l0.1-122.9l0-53.6l0.1-122.2l-130-0.1l0.1-161l-177.6,194   c-49.9,54.7-47.4,139.1,5.7,187.9l171.6,157.1L426.2,870.7z"></path>
	<path class="st0" d="M770,229.9c-53.2-48.5-137.5-43.7-187.6,10.9L480,352.6l-0.1,166l77.7,0v0l53.3,0l58-58.8l327.3,0.2l0-23.1   L770,229.9z"></path>
	<path class="st0" d="M626.7,871.1l59.8,57.9l290.1,0.2c12.4-36.9,19.2-76.3,19.4-117.4l0-63.6L626.7,748L626.7,871.1z"></path>
	<polygon class="st0" points="626.8,572 626.7,694.4 996,694.6 996.1,513.6 686.6,513.4  "></polygon>
	<g>
		<rect x="1032.9" y="697.2" class="st0" width="93.5" height="48.9"></rect>
	</g>
	<path class="st0" d="M1233.3,984.4h-62.9V454.2h206.8c65.2,0,115.1,14,149.7,42.1c34.6,28.1,52,68.6,52,121.6   c0,53-17.3,93.5-52,121.7c-34.6,28.1-84.5,42.1-149.7,42.1h-144V984.4z M1369.4,726.8c58.2,0,97.2-10.1,116.9-30.2   c19.8-20.1,29.7-46.4,29.7-78.7c0-32.3-9.9-58.5-29.7-78.7c-19.8-20.1-58.8-30.2-116.9-30.2h-136.1v217.8H1369.4z"></path>
	<path class="st0" d="M1744.8,975.4c-21.2-6.7-46.7-18-76.6-34V881c18.6,15.5,41.9,28.2,70.1,38.3c28.1,10,59.5,15.1,94,15.1   c37.6,0,65.8-8,84.3-24c18.6-16,27.9-37.7,27.9-65c0-20.1-5.4-36.8-16.2-49.9c-10.8-13.1-23.7-23.5-38.7-31   c-15-7.5-37.4-16.9-67.3-28.2c-32-10.8-57.4-21.1-76.2-31c-18.8-9.8-35-24.2-48.4-43.3c-13.4-19.1-20.1-44.4-20.1-75.8   c0-21.2,5.3-41.8,15.9-61.9c10.6-20.1,27.6-36.9,51.1-50.3c23.5-13.4,53.8-20.1,90.9-20.1c27.3,0,49.7,2.6,66.9,7.7   c17.3,5.2,40.1,14.7,68.5,28.6v57.3c-3.6-2.1-13.3-7.6-29-16.7c-15.7-9-32-15.6-48.7-19.7c-16.8-4.1-35-6.2-54.6-6.2   c-35.6,0-61.9,7.4-78.9,22c-17,14.7-25.5,33.2-25.5,55.4c0,20.1,4.5,36.4,13.5,48.7c9,12.4,21.2,22.5,36.4,30.2   c15.2,7.7,36.7,16.3,64.6,25.5c32,10.8,58.2,21.6,78.5,32.1c20.4,10.6,37.8,25.7,52.2,45.3c14.4,19.6,21.7,44.6,21.7,75.1   c0,40.7-13.5,75.3-40.6,103.7c-27.1,28.4-70.6,42.6-130.4,42.6C1794.3,985.4,1766,982.1,1744.8,975.4z"></path>
</g>
<g id="Calque_2">
</g>
<g id="Calque_3">
</g>
</svg>
